Coordinates
version=1
nRows=10
nColumns=34
inDegrees=yes

Units are S.I. units (second, meters, Newtons, ...)
If the header above contains a line with 'inDegrees', this indicates whether rotational values are in degrees (yes) or radians (no).

endheader
time	pelvis_tilt	pelvis_list	pelvis_rotation	pelvis_tx	pelvis_ty	pelvis_tz	hip_flexion_r	hip_adduction_r	hip_rotation_r	knee_angle_r	ankle_angle_r	subtalar_angle_r	mtp_angle_r	hip_flexion_l	hip_adduction_l	hip_rotation_l	knee_angle_l	ankle_angle_l	subtalar_angle_l	mtp_angle_l	lumbar_extension	lumbar_bending	lumbar_rotation	arm_flex_r	arm_add_r	arm_rot_r	elbow_flex_r	pro_sup_r	arm_flex_l	arm_add_l	arm_rot_l	elbow_flex_l	pro_sup_l
      2.21666670	      3.11176420	      5.52186459	    -22.62626585	      0.20722622	      0.99837485	     -0.09254976	     -3.65749377	     -6.38875053	    -11.19487611	      4.09278529	     10.80796391	     -1.38469372	      0.00000000	      1.44950433	     -2.43313877	    -12.63963081	      9.54634693	     13.49853443	     -1.88565711	      0.00000000	     -8.15098922	     -1.65352359	      1.08248220	     21.59223438	    -12.74361472	     37.40430687	     27.10236258	    119.74817918	     20.66164726	    -13.57434061	     38.11084972	     31.92299497	    119.74817918
      2.23333330	      3.07483570	      5.46333482	    -22.61026240	      0.20559456	      0.99851834	     -0.09244476	     -3.42282617	     -6.31686449	    -11.28814176	      4.35733639	     10.90097663	     -1.24119825	      0.00000000	      1.68008061	     -2.60448485	    -12.65326082	      9.78391315	     13.49734637	     -1.86360880	      0.00000000	     -8.27941550	     -1.51113198	      1.32886575	     22.57902276	    -12.74679575	     38.31635068	     28.64030577	    119.74817918	     21.66964205	    -13.36685847	     38.91475484	     33.96659511	    119.74817918
      2.25000000	      3.00319862	      5.45268049	    -22.57003388	      0.20429277	      0.99853519	     -0.09244603	     -3.19442653	     -6.27949364	    -11.35496723	      4.54066665	     10.94104400	     -1.03745730	      0.00000000	      1.92134145	     -2.72796078	    -12.67766989	      9.95724825	     13.48751352	     -1.79766679	      0.00000000	     -8.32527272	     -1.39943487	      1.54453026	     23.33294933	    -12.87174596	     38.87301637	     30.70846055	    119.74817918	     22.47291372	    -13.24341033	     39.14240952	     36.57028326	    119.74817918
      2.26666670	      2.97862821	      5.45363891	    -22.52847881	      0.20306994	      0.99859189	     -0.09249999	     -3.02315039	     -6.27324391	    -11.46342754	      4.69282040	     11.01054687	     -0.87989821	      0.00000000	      2.10538295	     -2.80300659	    -12.73873171	     10.09316581	     13.46321557	     -1.69388668	      0.00000000	     -8.43038772	     -1.31387021	      1.67942362	     24.02937869	    -13.15459960	     39.16088105	     33.41117599	    119.74817918	     23.10566083	    -13.21896626	     38.84010504	     39.67646501	    119.74086089
      2.28333330	      2.98104665	      5.46917788	    -22.47983778	      0.20211449	      0.99867554	     -0.09255442	     -2.98562277	     -6.26901332	    -11.57704834	      4.66736959	     11.06054001	     -0.68185716	      0.00000000	      2.16853149	     -2.82552886	    -12.80628951	     10.07378668	     13.44784776	     -1.52544794	      0.00000000	     -8.54590604	     -1.26804776	      1.73477554	     24.67438004	    -13.46594136	     39.19082840	     36.43549912	    119.74817918	     23.58228120	    -13.16896347	     38.03727311	     42.98742984	    119.67114783
      2.30000000	      3.04297999	      5.49006483	    -22.45307638	      0.20116568	      0.99889760	     -0.09251730	     -3.07923648	     -6.27703579	    -11.70119252	      4.48718066	     11.05470161	     -0.45691239	      0.00000000	      2.11637468	     -2.79581414	    -12.92486252	      9.94761267	     13.35462769	     -1.29887788	      0.00000000	     -8.71561814	     -1.27307097	      1.72262437	     25.41137694	    -13.67337018	     39.04758621	     39.47096029	    119.74056978	     24.09455639	    -13.03519401	     36.99445493	     46.21371577	    119.56078580
      2.31666670	      3.12747981	      5.54060893	    -22.43526539	      0.20032486	      0.99916770	     -0.09246218	     -3.26388571	     -6.30795929	    -11.84612986	      4.15700786	     10.97531163	     -0.22339160	      0.00000000	      1.98103887	     -2.71163865	    -13.10639589	      9.69290414	     13.18686467	     -1.01277994	      0.00000000	     -8.87137661	     -1.32171350	      1.68212863	     26.29286781	    -13.75939317	     38.88608650	     42.37954648	    119.72378634	     24.76902101	    -12.86060694	     36.16919482	     49.24065564	    119.47982001
      2.33333330	      3.26451464	      5.57743373	    -22.44080756	      0.19944753	      0.99952771	     -0.09244695	     -3.49878856	     -6.35052114	    -11.96532475	      3.82650089	     10.86610817	      0.00684428	      0.00000000	      1.79908840	     -2.62182636	    -13.29527077	      9.45855933	     12.99139018	     -0.71166942	      0.00000000	     -9.07131900	     -1.39448294	      1.60693230	     27.32431819	    -13.75612495	     38.79760776	     45.02662111	    119.70847764	     25.67646023	    -12.64985310	     35.75866274	     51.91399629	    119.44168723
      2.35000000	      3.44324837	      5.59608929	    -22.44661345	      0.19860297	      0.99997501	     -0.09242041	     -3.75143590	     -6.39844572	    -12.07714742	      3.56631730	     10.77813670	      0.18817974	      0.00000000	      1.55382999	     -2.52991182	    -13.47337654	      9.20749697	     12.82639144	     -0.41218840	      0.00000000	     -9.25082125	     -1.46098010	      1.52696566	     28.54599843	    -13.60245965	     38.78620640	     47.18248360	    119.67828914	     26.90368301	    -12.34699156	     35.78638296	     54.00301545	    119.42937856
      2.36666670	      3.53875149	      5.63002554	    -22.45269540	      0.19748506	      1.00031308	     -0.09246423	     -3.84906022	     -6.43390650	    -12.04388512	      3.40132792	     10.59186047	      0.38954475	      0.00000000	      1.43302725	     -2.46042387	    -13.50207130	      8.98369978	     12.58250952	     -0.13946849	      0.00000000	     -9.25708081	     -1.49789790	      1.45687081	     30.04799121	    -13.14870643	     38.81301801	     48.38635193	    119.65355095	     28.44100235	    -11.77488768	     36.03778112	     55.10892958	    119.43730643
